<svg width="164" height="71" viewBox="0 0 164 71" fill="none" xmlns="http://www.w3.org/2000/svg">
<g id="Facebook">
<g id="Rectangle 5" filter="url(#filter0_d_342_431)">
<rect x="13.9209" y="12" width="136.921" height="45" rx="10" fill="white"/>
</g>
<path id="Shape" fill-rule="evenodd" clip-rule="evenodd" d="M94.3268 34.6468C94.3268 27.6622 88.8634 22 82.1239 22C75.3843 22 69.9209 27.6622 69.9209 34.6468C69.9209 40.9592 74.3833 46.1912 80.2171 47.14V38.3025H77.1187V34.6468H80.2171V31.8606C80.2171 28.691 82.039 26.9402 84.8264 26.9402C86.1615 26.9402 87.558 27.1872 87.558 27.1872V30.2995H86.0192C84.5033 30.2995 84.0306 31.2743 84.0306 32.2745V34.6468H87.415L86.874 38.3025H84.0306V47.14C89.8644 46.1912 94.3268 40.9592 94.3268 34.6468Z" fill="#1778F2"/>
</g>
<defs>
<filter id="filter0_d_342_431" x="0.920898" y="0" width="162.921" height="71" filterUnits="userSpaceOnUse" color-interpolation-filters="sRGB">
<feFlood flood-opacity="0" result="BackgroundImageFix"/>
<feColorMatrix in="SourceAlpha" type="matrix" values="0 0 0 0 0 0 0 0 0 0 0 0 0 0 0 0 0 0 127 0" result="hardAlpha"/>
<feOffset dy="1"/>
<feGaussianBlur stdDeviation="6.5"/>
<feComposite in2="hardAlpha" operator="out"/>
<feColorMatrix type="matrix" values="0 0 0 0 0 0 0 0 0 0 0 0 0 0 0 0 0 0 0.13 0"/>
<feBlend mode="normal" in2="BackgroundImageFix" result="effect1_dropShadow_342_431"/>
<feBlend mode="normal" in="SourceGraphic" in2="effect1_dropShadow_342_431" result="shape"/>
</filter>
</defs>
</svg>
